<?xml version="1.0" encoding="iso-8859-1"?>
<!-- Generator: Adobe Illustrator 19.0.0, SVG Export Plug-In . SVG Version: 6.00 Build 0)  -->
<svg xmlns="http://www.w3.org/2000/svg" xmlns:xlink="http://www.w3.org/1999/xlink" version="1.1" id="Capa_1" x="0px" y="0px" viewBox="0 0 512.001 512.001" style="enable-background:new 0 0 512.001 512.001;" xml:space="preserve">
<path style="fill:#FFC89F;" d="M290.692,146.297c0-2.832,0.351-5.569,0.995-8.18l-16.091-7.563V26.1  c0-10.269-8.325-18.594-18.594-18.594l0,0c-10.269,0-18.594,8.325-18.594,18.594v104.454l-17.629,8.287  c0.51,2.342,0.792,4.778,0.792,7.291v31.258l0,0c22.273-8.323,46.739-8.507,69.124-0.605L290.692,146.297L290.692,146.297z"/>
<path style="fill:#F77474;" d="M221.568,146.132v237.999c0,24.148-16.748,45.129-40.334,50.305  c-31.873,6.994-77.952,23.398-120.648,61.873c-20.971,18.897-54.303,2.637-52.376-25.526  c7.385-107.942,40.321-328.922,172.324-357.796C201.629,108.372,221.568,124.538,221.568,146.132z"/>
<path style="fill:#E55555;" d="M180.535,112.987c-3.635,0.796-7.191,1.744-10.678,2.824c13.212,6.143,22.688,19.529,22.688,35.505  v274.353c0,1.662-0.073,3.312-0.208,4.945c17.565-8.397,29.232-26.334,29.232-46.484V146.132  C221.568,124.539,201.629,108.372,180.535,112.987z"/>
<path style="fill:#EF3A47;" d="M60.585,496.308c42.697-38.475,88.775-54.879,120.648-61.873  c23.586-5.175,40.334-26.156,40.334-50.305v-61.26l-1.893-1.235c0,0-31.095,69.724-105.45,86.095l-24.121,6.078  c0,0-59.863,14.22-81.895,56.975C6.283,498.945,39.614,515.206,60.585,496.308z"/>
<path style="fill:#F77474;" d="M290.433,146.132v237.999c0,24.148,16.748,45.129,40.334,50.305  c31.873,6.994,77.952,23.398,120.648,61.873c20.971,18.897,54.303,2.637,52.376-25.526  c-7.385-107.942-40.321-328.922-172.324-357.796C310.372,108.372,290.433,124.538,290.433,146.132z"/>
<path style="fill:#E55555;" d="M503.791,470.782c-7.385-107.942-40.321-328.922-172.324-357.796  c-7.028-1.537-13.921-0.758-19.998,1.75c126.152,35.045,158.048,250.046,165.301,356.046c0.973,14.22-7.047,25.396-17.922,30.553  C479.401,511.4,505.502,495.799,503.791,470.782z"/>
<path style="fill:#EF3A47;" d="M451.415,496.308c-42.697-38.475-88.775-54.879-120.648-61.873  c-23.586-5.175-40.334-26.156-40.334-50.305v-61.26l1.893-1.235c0,0,31.095,69.724,105.45,86.095l24.121,6.078  c0,0,59.863,14.22,81.895,56.975C505.718,498.945,472.386,515.206,451.415,496.308z"/>
<path d="M511.28,470.27c0-0.004-0.001-0.009-0.001-0.013c-0.002-0.026-0.003-0.053-0.005-0.079  c-3.229-47.117-12.972-137.784-41.967-216.336c-1.436-3.889-5.751-5.88-9.641-4.443c-3.89,1.435-5.879,5.752-4.443,9.641  c23.683,64.162,34.247,136.879,38.933,186.08c-27.677-28.13-68.424-38.114-70.526-38.614c-4.038-0.962-8.08,1.536-9.037,5.569  c-0.958,4.033,1.534,8.08,5.569,9.037c0.557,0.133,55.347,13.54,76.183,51.66c0.14,11.039-6.739,18.413-13.462,21.684  c-7.002,3.408-17.628,4.22-26.442-3.722c-44.14-39.776-91.831-56.555-124.065-63.628c-19.954-4.378-34.436-22.451-34.436-42.973  v-38.105c3.751,5.454,8.389,11.578,13.966,17.903c1.483,1.682,3.553,2.542,5.633,2.542c1.763,0,3.535-0.619,4.962-1.877  c3.11-2.741,3.407-7.485,0.665-10.594c-16.209-18.382-23.859-35.141-23.988-35.427c-0.321-0.718-0.743-1.36-1.238-1.919V178.712  c0.165-0.623,0.259-1.268,0.259-1.927v-30.487c0-2.146,0.261-4.294,0.777-6.382c0.149-0.607,0.216-1.216,0.214-1.818  c1.552-4.885,4.505-9.258,8.618-12.568c6.23-5.013,14.267-6.911,22.055-5.209c47.868,10.471,86.806,49.105,115.732,114.831  c1.668,3.794,6.097,5.516,9.894,3.847c3.794-1.67,5.517-6.1,3.846-9.894c-30.965-70.363-73.446-111.897-126.264-123.45  c-12.245-2.679-24.887,0.301-34.675,8.18c-4.766,3.837-8.537,8.586-11.167,13.893l-4.125-1.94V26.101  C283.102,11.709,271.393,0,257.001,0s-26.1,11.709-26.1,26.101v99.687l-5.753,2.704c-2.64-5.618-6.546-10.638-11.541-14.658  c-9.787-7.878-22.426-10.86-34.675-8.181c-26.29,5.751-50.302,19.119-71.373,39.733c-2.962,2.898-3.015,7.651-0.116,10.615  c2.898,2.962,7.65,3.015,10.615,0.116c19.027-18.614,40.586-30.658,64.082-35.798c7.787-1.702,15.827,0.196,22.055,5.21  c4.748,3.821,7.959,9.054,9.241,14.86c0.004,0.017,0.005,0.034,0.009,0.051c0.307,1.408,0.501,2.836,0.579,4.26  c0.01,0.196,0.01,0.393,0.017,0.59c0.009,0.28,0.023,0.56,0.023,0.84v31.258v139.262c-0.497,0.561-0.92,1.205-1.242,1.927  c-0.276,0.621-28.426,62.258-93.512,80.164c-3.997,1.1-6.346,5.231-5.246,9.229c0.917,3.331,3.938,5.518,7.233,5.518  c0.66,0,1.329-0.087,1.996-0.271c46.719-12.853,75.798-45.23,90.771-67.08v37.994c0,20.522-14.483,38.596-34.437,42.973  c-32.234,7.073-79.924,23.853-124.064,63.628c-8.814,7.941-19.439,7.131-26.443,3.722c-6.723-3.271-13.601-10.644-13.461-21.684  c20.718-37.892,75.313-51.449,76.182-51.66c4.033-0.958,6.526-5.004,5.568-9.037c-0.958-4.033-5.003-6.527-9.037-5.569  c-2.102,0.499-42.86,10.487-70.537,38.626c3.252-34.348,9.14-77.925,19.807-122.21c15.248-63.304,36.559-112.941,63.344-147.532  c2.538-3.278,1.939-7.993-1.339-10.531c-3.279-2.538-7.993-1.939-10.531,1.339c-28.092,36.281-50.32,87.827-66.068,153.208  C9.201,376.884,3.268,433.102,0.728,470.175c-0.002,0.028-0.004,0.056-0.006,0.084c0,0.004-0.001,0.008-0.001,0.012  c-1.105,16.155,7.259,30.594,21.829,37.684c5.58,2.714,11.445,4.046,17.235,4.046c9.309,0,18.42-3.443,25.825-10.115  c41.701-37.578,86.769-53.434,117.232-60.117c26.789-5.878,46.232-30.118,46.232-57.636V182.768  c17.471-5.446,36.237-5.642,53.852-0.57V384.13c0,27.52,19.443,51.759,46.231,57.636c30.463,6.684,75.531,22.54,117.233,60.117  c7.405,6.672,16.516,10.115,25.825,10.115c5.789,0,11.657-1.332,17.235-4.046C504.02,500.865,512.386,486.425,511.28,470.27z   M229.074,167.13v-20.999c0-0.903-0.037-1.8-0.094-2.694c-0.003-0.052-0.002-0.104-0.005-0.156l12.625-5.934  c2.632-1.237,4.314-3.884,4.314-6.794V26.101c0-6.114,4.974-11.089,11.088-11.089c6.114,0,11.088,4.974,11.088,11.089v104.453  c0,2.908,1.681,5.556,4.314,6.794l10.707,5.032c-0.111,1.241-0.183,2.491-0.183,3.752v20.516  C265.223,162.303,246.671,162.465,229.074,167.13z"/>
<path d="M342.781,372.841c-3.227-2.604-7.953-2.101-10.556,1.125c-2.604,3.226-2.102,7.952,1.124,10.556  c18.882,15.246,40.015,25.52,62.813,30.539c0.543,0.12,1.086,0.177,1.62,0.177c3.447,0,6.552-2.389,7.323-5.894  c0.892-4.048-1.667-8.054-5.717-8.945C378.882,395.885,359.837,386.612,342.781,372.841z"/>
<g>
</g>
<g>
</g>
<g>
</g>
<g>
</g>
<g>
</g>
<g>
</g>
<g>
</g>
<g>
</g>
<g>
</g>
<g>
</g>
<g>
</g>
<g>
</g>
<g>
</g>
<g>
</g>
<g>
</g>
</svg>
