<?xml version="1.0" encoding="iso-8859-1"?>
<!-- Generator: Adobe Illustrator 19.0.0, SVG Export Plug-In . SVG Version: 6.00 Build 0)  -->
<svg xmlns="http://www.w3.org/2000/svg" xmlns:xlink="http://www.w3.org/1999/xlink" version="1.1" id="Capa_1" x="0px" y="0px" viewBox="0 0 512.001 512.001" style="enable-background:new 0 0 512.001 512.001;" xml:space="preserve">
<path style="fill:#F77474;" d="M256,83.109V426.92c0,0-0.546,79.77-60.411,77.513c-49.53-1.867-41.273-33.248-63.013-47.603  c-21.74-14.356-73.732-9.33-88.365-65.983c-9.583-37.104,6.062-63.617,6.062-63.617s-14.986-16.126-17.077-54.541  s20.099-59.464,20.099-59.464s-13.834-12.392-10.728-48.328c3.106-35.937,27.854-43.883,27.854-43.883s25.375-79.2,85.135-69.325  c0,0,14.177-44.169,53.115-44.169C233.576,7.518,255.182,27.4,256,83.109z"/>
<path style="fill:#E55555;" d="M208.67,7.518c-4.872,0-9.356,0.692-13.474,1.902c19.193,6.108,34.064,27.662,34.741,73.689V426.92  c0,0-0.466,66.566-46.192,76.353c3.539,0.595,7.461,0.995,11.845,1.161c59.864,2.255,60.412-77.513,60.412-77.513V83.109  C255.182,27.4,233.576,7.518,208.67,7.518z"/>
<path style="fill:#F77474;" d="M256,83.109V426.92c0,0,0.546,79.77,60.411,77.513c49.53-1.867,41.273-33.248,63.013-47.603  c21.74-14.356,73.732-9.33,88.365-65.983c9.583-37.104-6.062-63.617-6.062-63.617s14.986-16.126,17.077-54.541  c2.091-38.415-20.099-59.464-20.099-59.464s13.834-12.392,10.728-48.328c-3.106-35.937-27.854-43.883-27.854-43.883  s-25.375-79.2-85.135-69.325c0,0-14.177-44.169-53.115-44.169C278.425,7.518,256.817,27.4,256,83.109z"/>
<path style="fill:#E55555;" d="M458.706,213.225c0,0,13.834-12.392,10.728-48.328c-3.106-35.937-27.854-43.883-27.854-43.883  s-25.375-79.2-85.135-69.325c0,0-14.177-44.169-53.115-44.169c-4.684,0-9.251,0.705-13.585,2.217  c28.032,8.944,38.631,41.952,38.631,41.952c59.761-9.874,85.135,69.325,85.135,69.325s24.748,7.946,27.854,43.883  c3.106,35.937-10.728,48.328-10.728,48.328s22.19,21.049,20.099,59.464s-17.077,54.541-17.077,54.541s15.645,26.514,6.062,63.617  c-14.633,56.652-66.625,51.627-88.365,65.983c-19.615,12.953-14.817,39.761-50.069,46.25c4.566,1.066,9.59,1.562,15.125,1.353  c49.53-1.867,41.273-33.248,63.013-47.603c21.74-14.356,73.732-9.33,88.365-65.983c9.583-37.104-6.062-63.617-6.062-63.617  s14.986-16.126,17.077-54.541S458.706,213.225,458.706,213.225z"/>
<path d="M111.335,397.665c-4.103-0.675-7.958,2.122-8.622,6.221c-0.664,4.099,2.121,7.958,6.221,8.622  c0.126,0.021,12.838,2.124,25.867,8.266c16.181,7.627,24.933,17.528,26.015,29.426c0.355,3.905,3.633,6.838,7.478,6.838  c0.228,0,0.458-0.01,0.69-0.031c4.135-0.376,7.183-4.032,6.807-8.167C172.074,407.953,113.814,398.066,111.335,397.665z"/>
<path d="M210.321,434.822c1.398,0,2.813-0.39,4.073-1.204c3.488-2.253,4.489-6.908,2.234-10.395  c-14.467-22.39-6.959-42.629-6.594-43.576c1.521-3.845-0.351-8.201-4.192-9.743c-3.856-1.546-8.232,0.324-9.778,4.178  c-0.455,1.135-10.927,28.112,7.933,57.301C205.438,433.609,207.854,434.822,210.321,434.822z"/>
<path d="M228.123,188.922c-4.113-0.458-7.849,2.498-8.316,6.624c-1.15,10.151-3.593,20.71-7.26,31.382  c-1.35,3.927,0.74,8.205,4.666,9.553c0.81,0.278,1.634,0.41,2.445,0.41c3.121,0,6.038-1.959,7.109-5.076  c4.023-11.706,6.707-23.339,7.98-34.576C235.217,193.113,232.25,189.389,228.123,188.922z"/>
<path d="M218.142,122.028c-2.612-3.207-7.313-3.684-10.534-1.088c-3.221,2.597-3.726,7.323-1.147,10.557  c0.104,0.13,10.428,13.314,13.349,37.387c0.463,3.815,3.705,6.614,7.454,6.614c0.303,0,0.607-0.019,0.915-0.056  c4.121-0.5,7.058-4.246,6.558-8.369C231.26,138.402,218.676,122.684,218.142,122.028z"/>
<path d="M240.494,273.078c-1.627-3.822-6.042-5.6-9.862-3.975c-13.055,5.556-24.801,4.993-34.913-1.665  c-7.896-5.199-12.032-12.337-12.134-12.512c-2.019-3.612-6.579-4.916-10.202-2.909c-3.633,2.01-4.949,6.585-2.939,10.218  c0.226,0.407,5.639,10.052,16.393,17.353c6.36,4.318,15.372,8.353,26.836,8.353c6.774,0,14.402-1.408,22.846-5.001  C240.34,281.314,242.119,276.9,240.494,273.078z"/>
<path d="M201.5,318.561c-2.35-3.423-7.002-4.315-10.427-1.964c-0.919,0.608-22.623,14.477-53.332-5.315  c-3.552-5.097-7.818-10.03-12.807-14.762c-15.808-14.991-33.198-22.674-33.932-22.994c-3.8-1.658-8.224,0.076-9.889,3.876  c-1.664,3.799,0.067,8.231,3.865,9.901c0.157,0.069,16.001,7.117,29.889,20.397c4.382,4.19,8.072,8.498,11.069,12.914  c0.125,0.213,0.262,0.419,0.409,0.621c8.729,13.178,11.313,27.323,7.666,42.223c-0.986,4.033,1.483,8.103,5.515,9.09  c0.601,0.146,1.201,0.218,1.793,0.218c3.383,0,6.456-2.301,7.297-5.733c2.841-11.608,2.685-22.98-0.368-33.873  c8.038,2.78,15.409,3.804,21.903,3.804c17.482,0,28.623-7.415,29.378-7.933C202.952,326.682,203.849,321.985,201.5,318.561z"/>
<path d="M100.182,201.172c-2.402,3.387-1.603,8.081,1.785,10.481c0.295,0.21,29.491,21.326,29.89,57.938  c0.045,4.124,3.403,7.436,7.516,7.436c0.028,0,0.056,0,0.084,0c4.152-0.046,7.481-3.448,7.436-7.601  c-0.483-44.194-34.773-69.006-36.233-70.039C107.273,196.982,102.582,197.785,100.182,201.172z"/>
<path d="M142.674,89.114c-3.472-2.274-8.132-1.305-10.409,2.168c-1.114,1.7-27.118,42.141-12.195,85.397  c1.074,3.113,3.989,5.068,7.107,5.068c0.813,0,1.64-0.133,2.452-0.413c3.925-1.354,6.009-5.634,4.655-9.559  c-2.563-7.43-3.621-14.836-3.708-21.927c18.087,33.689,50.636,45.18,52.344,45.762c0.804,0.274,1.621,0.404,2.426,0.404  c3.129,0,6.05-1.969,7.115-5.095c1.34-3.93-0.761-8.202-4.691-9.541c-0.433-0.147-42.799-15.099-52.147-61.708  c4.053-12.034,9.082-19.937,9.225-20.156C147.116,96.042,146.144,91.387,142.674,89.114z"/>
<path d="M175.926,88.048c-4.062,0.865-6.653,4.859-5.788,8.919c0.753,3.534,3.872,5.955,7.346,5.955  c0.519,0,1.046-0.055,1.573-0.166c27.3-5.812,39.701-21.689,45.297-33.983c6.035-13.26,5.522-25.234,5.497-25.738  c-0.202-4.132-3.715-7.291-7.84-7.121c-4.133,0.183-7.342,3.691-7.18,7.825C214.887,45.196,215.77,79.565,175.926,88.048z"/>
<path d="M468.418,212.928c4.685-7.482,10.762-22.557,8.504-48.68c-2.78-32.178-21.282-44.804-29.343-48.819  c-2.476-6.651-8.961-22.264-20.126-37.27c-18.379-24.701-41.13-36.584-66.132-34.634C355.586,30.391,338.505,0,303.331,0  c-15.922,0-29.337,6.923-38.794,20.022c-3.379,4.68-6.221,10.139-8.541,16.321C243.944,4.361,220.511,0,208.67,0  c-18.358,0-34.658,8.661-47.139,25.046c-5.259,6.904-8.774,13.799-10.836,18.481c-9.645-0.751-19,0.545-27.891,3.875  c-3.889,1.457-5.86,5.789-4.404,9.678c1.458,3.89,5.794,5.858,9.678,4.404c8.255-3.092,17.084-3.893,26.252-2.38  c3.678,0.611,7.246-1.571,8.383-5.12c0.126-0.39,12.885-38.948,45.957-38.948c25.017,0,39.155,24.195,39.812,68.127v244.068v0.002  c0,4.153,3.365,7.518,7.518,7.518c4.153,0,7.518-3.365,7.518-7.518v-0.002V83.165c0.657-43.933,14.794-68.128,39.812-68.128  c13.553,0,25.302,6.322,34.924,18.791c7.636,9.895,11.004,20.071,11.031,20.156c1.14,3.549,4.699,5.73,8.385,5.12  c21.679-3.577,41.032,5.751,57.505,27.744c11.573,15.45,17.746,32.146,18.999,35.741c0.131,2.582-0.093,13.973-12.402,28.591  c-2.676,3.176-2.269,7.918,0.907,10.593c1.409,1.189,3.129,1.768,4.839,1.768c2.141,0,4.267-0.909,5.754-2.676  c8.804-10.454,12.832-19.957,14.62-27.198c5.772,5.199,12.577,14.825,14.049,31.876c2.129,24.638-4.46,38.273-8.303,42.124  c-0.254,0.212-0.482,0.44-0.699,0.676c-2.188,2.094-12.105,11.265-23.769,17.096c-3.713,1.858-5.219,6.373-3.361,10.088  c1.317,2.634,3.973,4.157,6.73,4.157c1.13,0,2.277-0.257,3.357-0.796c8.986-4.493,16.925-10.537,22.06-14.869  c5.676,7.867,14.644,24.285,13.339,48.263c-1.464,26.892-9.981,43.675-14.628,49.306c-5.398,3.729-18.307,12.409-24.236,15.375  c-3.713,1.858-5.219,6.373-3.362,10.088c1.316,2.634,3.973,4.157,6.73,4.157c1.13,0,2.277-0.257,3.357-0.796  c5.041-2.52,13.337-7.884,19.382-11.923c2.17,5.963,4.646,15.244,4.827,26.883c0.063,4.112,3.416,7.402,7.515,7.402  c0.039,0,0.078,0,0.118-0.001c4.152-0.064,7.465-3.483,7.401-7.634c-0.269-17.372-4.963-30.539-7.893-37.108  c5.022-7.513,14.178-25.071,15.804-54.934C487.979,242.467,475.459,221.932,468.418,212.928z"/>
<path d="M469.668,383.569c-4.028-1.036-8.122,1.38-9.16,5.399c-9.466,36.651-35.938,44.467-59.293,51.363  c-9.722,2.871-18.904,5.583-25.934,10.225c-9.077,5.994-13.761,14.375-17.893,21.771c-7.055,12.628-13.149,23.535-41.261,24.593  c-12.839,0.49-23.122-3.143-31.445-11.085c-20.57-19.629-21.161-58.584-21.164-58.916v-72.822v-0.006  c0-4.153-3.365-7.518-7.518-7.518c-4.153,0-7.518,3.365-7.518,7.518v0.006v72.762c-0.003,0.391-0.594,39.345-21.164,58.974  c-8.323,7.943-18.604,11.563-31.446,11.086c-28.112-1.06-34.206-11.965-41.261-24.593c-4.132-7.396-8.816-15.778-17.893-21.771  c-7.03-4.642-16.213-7.354-25.934-10.225c-23.356-6.897-49.827-14.714-59.293-51.363c-5.797-22.444-1.482-40.774,2.008-50.453  c6.042,4.035,14.313,9.381,19.344,11.896c1.079,0.54,2.226,0.796,3.356,0.796c2.758,0,5.413-1.525,6.73-4.158  c1.858-3.714,0.352-8.23-3.362-10.087c-5.925-2.963-18.819-11.633-24.224-15.367c-4.694-5.713-13.178-22.481-14.639-49.315  c-1.311-24.072,7.638-40.43,13.326-48.275c5.134,4.335,13.079,10.384,22.074,14.881c1.08,0.54,2.227,0.796,3.357,0.796  c2.758,0,5.413-1.524,6.73-4.157c1.858-3.714,0.352-8.23-3.362-10.088c-13.062-6.532-24.075-17.389-24.226-17.54  c-0.051-0.051-0.107-0.094-0.159-0.143c-0.045-0.042-0.084-0.089-0.13-0.13c-0.11-0.1-10.918-11.271-8.253-42.083  c1.47-17.015,8.276-26.647,14.053-31.858c1.789,7.24,5.819,16.736,14.616,27.18c1.487,1.766,3.613,2.676,5.754,2.676  c1.709,0,3.429-0.58,4.839-1.768c3.176-2.675,3.583-7.417,0.907-10.593c-12.317-14.627-12.535-26.022-12.402-28.595  c1.551-4.467,10.575-28.864,28.167-46.356c2.945-2.928,2.958-7.688,0.03-10.632c-2.927-2.945-7.688-2.957-10.632-0.03  c-17.944,17.843-27.776,41.267-30.97,49.855c-3.01,1.497-7.465,4.197-12.039,8.703c-6.9,6.799-15.503,19.279-17.305,40.126  c-2.258,26.123,3.82,41.198,8.506,48.68c-7.04,9.003-19.562,29.539-17.895,60.169c1.626,29.852,10.776,47.409,15.8,54.926  c-4.345,9.709-12.536,33.809-4.555,64.705c11.596,44.898,45.118,54.796,69.594,62.025c8.614,2.543,16.751,4.946,21.908,8.351  c6.022,3.976,9.28,9.806,13.052,16.557c7.694,13.77,17.269,30.908,53.822,32.286c0.932,0.034,1.855,0.052,2.771,0.052  c15.689,0,29.026-5.152,39.67-15.331c8.679-8.301,14.435-18.944,18.254-29.405c3.818,10.46,9.573,21.103,18.254,29.405  c10.644,10.181,23.979,15.331,39.669,15.331c0.915,0,1.84-0.018,2.771-0.052c36.552-1.378,46.129-18.516,53.823-32.286  c3.772-6.751,7.03-12.582,13.052-16.557c5.157-3.405,13.293-5.808,21.907-8.351c24.477-7.229,57.997-17.127,69.594-62.025  C476.106,388.709,473.688,384.608,469.668,383.569z"/>
<path d="M400.665,397.665c-2.479,0.4-60.738,10.288-64.454,51.175c-0.376,4.135,2.672,7.791,6.807,8.167  c0.231,0.022,0.461,0.032,0.69,0.031c3.844,0,7.123-2.934,7.478-6.838c1.076-11.826,9.734-21.682,25.736-29.296  c13.029-6.198,26.024-8.376,26.154-8.398c4.094-0.667,6.875-4.525,6.212-8.621C408.623,399.787,404.768,396.997,400.665,397.665z"/>
<path d="M297.606,433.618c1.262,0.816,2.676,1.205,4.074,1.205c2.466,0,4.883-1.213,6.321-3.439  c18.861-29.189,8.391-56.166,7.935-57.301c-1.54-3.836-5.88-5.688-9.726-4.173c-3.846,1.516-5.739,5.874-4.246,9.731  c0.33,0.852,7.912,21.137-6.591,43.583C293.118,426.71,294.118,431.364,297.606,433.618z"/>
<path d="M285.232,231.814c1.071,3.118,3.988,5.076,7.109,5.076c0.811,0,1.635-0.132,2.444-0.41c3.927-1.349,6.017-5.626,4.666-9.553  c-10.92-31.778-8.678-56.024-4.876-70.767c4.081-15.824,10.788-24.442,10.96-24.659c2.599-3.219,2.11-7.935-1.1-10.551  c-3.218-2.623-7.954-2.142-10.578,1.078C292.528,123.661,261.526,162.823,285.232,231.814z"/>
<path d="M271.507,273.078c-1.626,3.82,0.153,8.236,3.975,9.862c8.445,3.593,16.071,5.001,22.846,5.001  c11.463,0,20.477-4.036,26.837-8.353c10.754-7.301,16.167-16.945,16.392-17.353c2.01-3.633,0.694-8.208-2.939-10.218  c-3.632-2.011-8.209-0.694-10.218,2.939c-0.626,1.129-15.66,27.499-47.029,14.148C277.553,267.482,273.133,269.256,271.507,273.078z  "/>
<path d="M430.899,277.41c-1.662-3.807-6.094-5.541-9.898-3.883c-0.733,0.32-18.124,8.004-33.932,22.994  c-4.989,4.732-9.256,9.664-12.807,14.761c-30.634,19.742-52.307,5.993-53.327,5.321c-3.418-2.314-8.07-1.434-10.409,1.976  c-2.349,3.424-1.478,8.104,1.946,10.454c0.756,0.518,11.892,7.933,29.378,7.933c6.494,0,13.865-1.025,21.904-3.804  c-3.052,10.893-3.21,22.264-0.368,33.873c0.841,3.433,3.914,5.733,7.297,5.733c0.591,0,1.193-0.07,1.793-0.218  c4.033-0.987,6.502-5.057,5.516-9.09c-3.649-14.904-1.062-29.053,7.674-42.234c0.142-0.194,0.275-0.395,0.397-0.601  c2.998-4.42,6.689-8.729,11.074-12.922c13.882-13.272,29.716-20.32,29.889-20.397C430.824,285.64,432.558,281.212,430.899,277.41z"/>
<path d="M401.338,199.385c-1.46,1.034-35.748,25.845-36.232,70.039c-0.045,4.152,3.284,7.554,7.436,7.601c0.028,0,0.056,0,0.084,0  c4.114,0,7.471-3.313,7.516-7.436c0.396-36.289,29.491-57.649,29.905-57.948c3.375-2.404,4.169-7.088,1.771-10.471  C409.419,197.784,404.726,196.983,401.338,199.385z"/>
<path d="M324.211,181.383c-3.918,1.347-6.009,5.612-4.671,9.535c1.066,3.127,3.987,5.095,7.115,5.095  c0.805,0,1.622-0.13,2.426-0.404c1.709-0.581,34.256-12.072,52.343-45.762c-0.087,7.09-1.144,14.496-3.707,21.927  c-1.354,3.926,0.73,8.205,4.654,9.559c0.813,0.28,1.639,0.413,2.452,0.413c3.119,0,6.034-1.955,7.107-5.068  c14.923-43.255-11.08-83.697-12.194-85.397c-2.274-3.467-6.922-4.437-10.393-2.17c-3.473,2.268-4.451,6.923-2.191,10.399  c0.108,0.167,5.159,8.081,9.226,20.158C367.107,165.995,325.98,180.771,324.211,181.383z"/>
<path d="M290.029,35.896c-4.173-0.212-7.675,2.993-7.879,7.139c-0.024,0.504-0.536,12.477,5.497,25.738  c5.595,12.295,17.996,28.172,45.297,33.983c0.527,0.111,1.055,0.166,1.573,0.166c3.472,0,6.593-2.421,7.346-5.955  c0.864-4.061-1.727-8.054-5.788-8.919c-39.776-8.468-38.964-42.734-38.905-44.302C297.357,39.611,294.166,36.099,290.029,35.896z"/>
<g>
</g>
<g>
</g>
<g>
</g>
<g>
</g>
<g>
</g>
<g>
</g>
<g>
</g>
<g>
</g>
<g>
</g>
<g>
</g>
<g>
</g>
<g>
</g>
<g>
</g>
<g>
</g>
<g>
</g>
</svg>
