<?xml version="1.0" encoding="iso-8859-1"?>
<!-- Generator: Adobe Illustrator 19.0.0, SVG Export Plug-In . SVG Version: 6.00 Build 0)  -->
<svg xmlns="http://www.w3.org/2000/svg" xmlns:xlink="http://www.w3.org/1999/xlink" version="1.1" id="Capa_1" x="0px" y="0px" viewBox="0 0 511.999 511.999" style="enable-background:new 0 0 511.999 511.999;" xml:space="preserve">
<g>
	<path style="fill:#EF3A47;" d="M144.97,156.139c0.041-0.137,0.083-0.275,0.124-0.413   C145.053,155.863,145.011,156.002,144.97,156.139z"/>
	<path style="fill:#EF3A47;" d="M417.522,250.955c3.851-49.124-13.803-82.206-41.16-102.26c-16.423,2.605-41.457,8.48-59.437,19.011   c1.729,3.921,3.297,7.991,4.679,12.224c3.144,9.638,5.018,18.931,6.139,27.447c2.445,18.589-12.759,34.774-31.478,33.726   l-0.032-0.002c-14.47-0.81-26.201-11.851-28.116-26.216c-0.811-6.079-2.035-12.37-3.882-17.706   c-2.483-7.177-5.562-12.715-8.934-17.027c-0.181-0.22-0.353-0.445-0.526-0.669c-7.788-9.579-17.05-12.791-24.238-14.349   c-6.368-1.379-14.862-2.41-24.466-3.172c-6.896,18.758-9.224,35.131-9.251,35.331c-2.005,15.044-14.852,25.953-29.623,25.953   c-1.322,0-2.657-0.087-4.001-0.267c-16.39-2.184-27.901-17.276-25.718-33.667c0.108-0.809,1.763-12.862,6.386-29.341   c-0.003,0.01-0.006,0.02-0.009,0.03c-2.198,0-4.347,0.006-6.452,0.016c-27.311,25.943-41.473,67.968-40.535,107.75   c0.023,0.966,0.099,1.937,0.097,2.918C96.823,376.411,229.582,519.469,342.45,503.24   C491.999,481.737,411.705,325.167,417.522,250.955z"/>
</g>
<path id="SVGCleanerId_0" style="fill:#F77474;" d="M156.717,124.773c4.135-8.894,8.73-17.036,13.748-24.399  c-30.586-0.685-58.15,0.103-63.386,0.269c-16.525,0.524-29.497,14.345-28.974,30.871c0.523,16.525,14.32,29.508,30.87,28.977  c7.881-0.249,20.487-0.486,34.877-0.486C146.805,149.476,150.964,137.145,156.717,124.773z"/>
<g>
	<path id="SVGCleanerId_0_1_" style="fill:#F77474;" d="M156.717,124.773c4.135-8.894,8.73-17.036,13.748-24.399   c-30.586-0.685-58.15,0.103-63.386,0.269c-16.525,0.524-29.497,14.345-28.974,30.871c0.523,16.525,14.32,29.508,30.87,28.977   c7.881-0.249,20.487-0.486,34.877-0.486C146.805,149.476,150.964,137.145,156.717,124.773z"/>
</g>
<path style="fill:#F77474;" d="M312.632,103.719c-11.657,4.517-23.4,10.258-34.077,17.543c-5.885-3.869-12.226-7.103-18.956-9.716  c-1.123-0.05-2.257-0.084-3.416-0.084c-6.642,0-26.855,0-44.681,37.519c-2.064,4.343-3.864,8.724-5.43,12.983  c9.604,0.762,18.098,1.793,24.466,3.172c7.189,1.557,16.45,4.77,24.238,14.349c0.174,0.224,0.346,0.449,0.526,0.669  c3.372,4.312,6.451,9.85,8.934,17.027c1.847,5.336,3.071,11.626,3.882,17.706c1.916,14.366,13.647,25.406,28.116,26.216l0.032,0.002  c18.72,1.048,33.923-15.136,31.478-33.726c-1.12-8.517-2.994-17.809-6.139-27.447c-1.381-4.233-2.951-8.304-4.679-12.224  c23.15-13.561,58.003-19.403,71.1-20.483c16.464-1.316,28.756-15.718,27.462-32.189c-1.296-16.483-15.696-28.793-32.192-27.501  c-4.458,0.351-26.135,2.355-51.555,9.747"/>
<path style="fill:#E55555;" d="M275.209,119.171c-4.924-2.955-10.137-5.5-15.611-7.625c-1.123-0.05-2.257-0.084-3.416-0.084  c-6.642,0-26.855,0-44.681,37.519c-2.064,4.343-3.864,8.724-5.43,12.983c9.604,0.762,18.098,1.793,24.466,3.172  c1.345,0.292,2.765,0.641,4.232,1.08C241.933,145.828,260.956,126.455,275.209,119.171z"/>
<path style="fill:#9B3E2C;" d="M206.07,161.965c0.001-0.003,0.002-0.005,0.003-0.008c0.354-0.96,0.721-1.928,1.099-2.899  c0.073-0.187,0.145-0.373,0.219-0.56c0.39-0.992,0.788-1.987,1.205-2.985c0.006-0.014,0.012-0.029,0.018-0.043  c0.395-0.948,0.806-1.898,1.225-2.848c0.107-0.241,0.214-0.482,0.322-0.723c0.436-0.974,0.879-1.947,1.34-2.918  c17.827-37.519,38.04-37.519,44.681-37.519c10.698,0,19.887,2.051,27.848,6.255c20.324-12.513,43.621-19.942,62.627-24.304  c-6.981-8.481-14.859-15.747-23.512-21.731l10.441-34.672c3.012-10-2.654-20.547-12.653-23.558  c-10.001-3.013-20.547,2.653-23.558,12.653l-8.915,29.602c-4.349-1.161-8.808-2.08-13.37-2.752V26.4  c0-10.443-8.466-18.909-18.909-18.909c-10.443,0-18.909,8.466-18.909,18.909v27.034c-4.419,0.871-8.754,2.053-12.99,3.533  l-9.293-30.863c-3.011-9.999-13.556-15.664-23.558-12.653c-9.999,3.011-15.664,13.559-12.653,23.558l12.011,39.886  c-13.403,11.979-24.867,28.081-34.071,47.879c-14.745,31.713-19.064,63.216-19.241,64.542c-2.184,16.39,9.327,31.483,25.718,33.667  c1.345,0.18,2.681,0.267,4.001,0.267c14.771,0,27.619-10.909,29.623-25.953C196.847,197.095,199.174,180.723,206.07,161.965  L206.07,161.965z"/>
<g>
	<path style="fill:#CE3043;" d="M224.809,179.486c0.174,0.224,0.346,0.449,0.525,0.669c3.372,4.312,6.451,9.85,8.934,17.027   c1.847,5.336,3.071,11.626,3.882,17.706c1.915,14.366,13.647,25.406,28.116,26.216l0.032,0.002   c6.095,0.342,11.812-1.154,16.674-3.954c-7.921-4.572-13.577-12.675-14.855-22.264c-0.811-6.079-2.035-12.37-3.882-17.706   c-2.483-7.177-5.562-12.715-8.934-17.027c-0.181-0.22-0.353-0.445-0.525-0.669c-7.788-9.579-17.05-12.791-24.238-14.349   c-6.368-1.379-14.862-2.41-24.466-3.172c-0.519,1.413-1.01,2.812-1.479,4.192C211.013,168.044,218.408,171.613,224.809,179.486z"/>
	<path style="fill:#CE3043;" d="M417.522,250.955c3.851-49.124-13.803-82.206-41.16-102.26c-6.786,1.077-15.05,2.722-23.671,5.013   c23.712,20.383,38.411,52.007,34.865,97.247c-5.817,74.212,74.478,230.782-75.072,252.285c-1.063,0.153-2.128,0.287-3.194,0.412   c11.147,1.232,22.247,1.158,33.16-0.412C491.999,481.737,411.705,325.167,417.522,250.955z"/>
</g>
<g>
	<path style="fill:#E55555;" d="M136.696,100.124c-12.417,11.338-21.759,38.715-21.759,60.205   c7.646-0.181,17.737-0.324,28.917-0.325c2.952-10.528,7.112-22.859,12.864-35.231c4.135-8.894,8.73-17.036,13.748-24.399   C158.329,100.102,146.674,100.063,136.696,100.124z"/>
	<path style="fill:#E55555;" d="M305.692,240.14c14.07-3.738,24.068-17.426,22.051-32.761c-1.12-8.517-2.994-17.809-6.139-27.447   c-1.381-4.233-2.951-8.304-4.679-12.224c23.15-13.561,58.003-19.403,71.1-20.483c16.624-1.327,28.994-15.999,27.421-32.67   c-0.004-0.003-0.006-0.005-0.009-0.008c-54.203,5.143-92.308,20.562-112.636,30.934c-9.846,5.024-14.78,16.312-11.814,26.961   C296.556,192.437,302.845,220.725,305.692,240.14z"/>
</g>
<path style="fill:#7A232E;" d="M196.819,197.296c0.028-0.201,2.354-16.573,9.251-35.331l0,0c0.001-0.003,0.002-0.005,0.003-0.008  c0.354-0.96,0.721-1.928,1.099-2.899c0.073-0.187,0.145-0.373,0.219-0.56c0.39-0.992,0.788-1.987,1.205-2.985  c0.006-0.014,0.012-0.029,0.018-0.043c0.395-0.948,0.806-1.898,1.225-2.848c0.107-0.241,0.214-0.482,0.322-0.723  c0.436-0.974,0.879-1.947,1.34-2.918c17.827-37.519,38.04-37.519,44.681-37.519c10.698,0,19.887,2.051,27.848,6.255  c7.579-4.666,15.571-8.623,23.601-11.98c-13.127-10.732-30.46-18.296-53.273-18.296c-78.681,0-91.164,135.541-91.164,135.541  c1.345,0.18,2.681,0.267,4.001,0.267C181.967,223.249,194.815,212.34,196.819,197.296z"/>
<g>
	<path style="fill:#CE3043;" d="M144.972,156.133c0.039-0.132,0.08-0.266,0.119-0.398   C145.052,155.867,145.011,156.001,144.972,156.133z"/>
	<path style="fill:#CE3043;" d="M137.476,189.315c0.108-0.809,1.762-12.856,6.382-29.328c-0.002,0.006-0.003,0.012-0.005,0.018   c-2.199,0-4.348,0.006-6.453,0.016c-12.217,11.606-21.803,26.429-28.583,42.831c3.536,10.462,12.732,18.573,24.409,20.129   c1.345,0.18,2.681,0.267,4.002,0.267c5.381,0,10.504-1.453,14.943-4.021C141.994,213.332,135.827,201.696,137.476,189.315z"/>
</g>
<path d="M169.547,366.472c0.313,0.039,0.622,0.058,0.928,0.058c3.728,0,6.957-2.78,7.426-6.574  c0.578-4.68,1.955-14.178,3.801-23.562c2.174,4.377,4.639,8.921,7.424,13.572c0.212,0.443,0.464,0.861,0.755,1.25  c6.539,10.737,14.8,22.008,25.239,33.097c-0.646,7.262-1.723,23.519,0.479,33.29c0.785,3.482,3.876,5.846,7.302,5.846  c0.545,0,1.1-0.06,1.654-0.185c4.036-0.91,6.571-4.919,5.661-8.955c-0.905-4.015-1.051-10.258-0.887-16.302  c6.305,5.531,13.211,10.938,20.808,16.118c1.291,0.881,2.76,1.302,4.213,1.302c2.393,0,4.746-1.145,6.196-3.271  c2.331-3.418,1.449-8.079-1.969-10.409c-21.669-14.776-37.394-31.484-48.78-47.511h19.093c4.137,0,7.492-3.354,7.492-7.491  s-3.354-7.491-7.492-7.491h-28.675c-4.897-8.541-8.615-16.617-11.41-23.767c-10.252-26.226-10.845-46.174-10.85-46.371  c-0.091-4.13-3.507-7.403-7.642-7.324c-4.136,0.085-7.422,3.506-7.337,7.643c0.017,0.823,0.494,18.924,9.113,43.975  c-5.412,15.562-8.903,43.459-9.058,44.71C162.523,362.225,165.441,365.965,169.547,366.472z"/>
<path d="M432.187,319.925c-0.976-5.672-1.897-11.027-2.772-16.376c-1.218-7.445-2.11-13.443-2.806-18.879  c-1.784-13.932-2.298-24.459-1.619-33.129c3.799-48.467-12.662-78.952-31.152-97.644c17.869-4.002,30.592-20.68,29.118-39.448  c-1.617-20.571-19.688-35.996-40.248-34.383c-3.13,0.247-16.169,1.427-33.284,5.069c-5.385-6.082-11.265-11.574-17.574-16.384  l8.908-29.58c2.034-6.752,1.316-13.892-2.021-20.104c-3.337-6.213-8.893-10.754-15.644-12.786  c-6.753-2.036-13.893-1.317-20.106,2.02c-6.212,3.336-10.753,8.893-12.785,15.645l-6.883,22.858c-0.246-0.05-0.49-0.1-0.736-0.149  V26.4c0-14.557-11.843-26.4-26.4-26.4c-14.556,0-26.4,11.843-26.4,26.4v21.067c-0.166,0.043-0.332,0.087-0.496,0.131l-7.123-23.654  c-4.197-13.937-18.954-21.861-32.891-17.666c-6.752,2.034-12.309,6.575-15.646,12.786c-3.336,6.213-4.054,13.353-2.021,20.104  l10.667,35.421c-5.571,5.395-10.795,11.477-15.651,18.213c-29.155-0.54-54.755,0.193-59.777,0.353  C86.217,93.81,69.966,111.123,70.62,131.75c0.317,9.995,4.501,19.266,11.784,26.107c6.989,6.566,16.031,10.139,25.578,10.139  c0.41,0,0.821-0.007,1.233-0.02c3.384-0.107,7.197-0.198,11.239-0.272c-20.29,26.263-31.95,63.11-31.074,100.238  c0.01,0.448,0.03,0.898,0.051,1.35c0.021,0.459,0.045,0.922,0.044,1.383c-0.013,9.839,1.073,20.204,3.228,30.805  c0.824,4.054,4.782,6.675,8.834,5.848c4.054-0.824,6.673-4.78,5.848-8.834c-1.955-9.615-2.94-18.968-2.929-27.802  c0-0.697-0.028-1.391-0.06-2.083c-0.016-0.34-0.032-0.678-0.039-1.019c-0.793-33.623,9.57-66.822,27.628-90.342  c-1.273,6.289-1.835,10.333-1.935,11.074c-2.728,20.478,11.697,39.356,32.154,42.081c1.652,0.221,3.331,0.333,4.992,0.333  c18.657,0,34.585-13.952,37.043-32.404c0.002-0.014,0.023-0.162,0.065-0.427c0.002-0.014,0.005-0.031,0.007-0.046  c0.012-0.078,0.026-0.165,0.041-0.262c0.003-0.019,0.006-0.039,0.009-0.059c0.016-0.1,0.034-0.211,0.054-0.329  c0.004-0.024,0.008-0.048,0.012-0.074c0.019-0.114,0.04-0.239,0.061-0.368c0.007-0.041,0.014-0.081,0.021-0.123  c0.024-0.143,0.051-0.296,0.079-0.456c0.004-0.025,0.008-0.047,0.012-0.072c0.032-0.185,0.067-0.382,0.104-0.587  c0.002-0.011,0.004-0.02,0.006-0.031c0.078-0.436,0.167-0.917,0.266-1.44c0.01-0.053,0.021-0.111,0.032-0.165  c0.039-0.203,0.078-0.411,0.12-0.625c0.018-0.093,0.037-0.19,0.056-0.285c0.036-0.183,0.073-0.369,0.111-0.56  c0.023-0.114,0.047-0.232,0.07-0.349c0.038-0.188,0.077-0.378,0.117-0.572c0.025-0.121,0.05-0.244,0.076-0.367  c0.04-0.193,0.081-0.391,0.124-0.589c0.029-0.139,0.059-0.278,0.089-0.42c0.042-0.197,0.086-0.399,0.13-0.601  c0.032-0.145,0.063-0.29,0.095-0.438c0.047-0.213,0.095-0.432,0.144-0.65c0.033-0.147,0.065-0.292,0.098-0.44  c0.054-0.242,0.111-0.489,0.168-0.737c0.03-0.133,0.06-0.262,0.091-0.396c0.084-0.363,0.171-0.733,0.26-1.109  c0.031-0.132,0.064-0.268,0.097-0.402c0.068-0.284,0.137-0.568,0.208-0.859c0.045-0.183,0.092-0.37,0.138-0.555  c0.057-0.231,0.114-0.46,0.173-0.695c0.051-0.201,0.103-0.406,0.155-0.61c0.058-0.227,0.116-0.454,0.176-0.685  c0.055-0.213,0.112-0.429,0.168-0.644c0.059-0.226,0.119-0.452,0.18-0.681c0.059-0.223,0.12-0.447,0.18-0.672  c0.062-0.229,0.124-0.458,0.188-0.69c0.063-0.23,0.126-0.46,0.191-0.693c0.066-0.236,0.132-0.473,0.2-0.711  c0.066-0.233,0.131-0.465,0.199-0.7c0.068-0.239,0.139-0.48,0.209-0.721c0.07-0.241,0.139-0.481,0.211-0.724  c0.071-0.243,0.145-0.487,0.218-0.732c0.073-0.245,0.145-0.487,0.22-0.734c0.086-0.282,0.174-0.567,0.262-0.851  c0.135-0.439,0.274-0.881,0.415-1.326c0.079-0.248,0.156-0.494,0.236-0.744c0.087-0.269,0.176-0.54,0.265-0.812  c0.062-0.19,0.124-0.381,0.187-0.571c0.261,0.025,0.529,0.049,0.787,0.075c0.361,0.036,0.718,0.072,1.072,0.109  c0.696,0.072,1.376,0.146,2.047,0.22c0.314,0.035,0.632,0.069,0.941,0.105c0.893,0.103,1.765,0.209,2.609,0.317  c0.068,0.009,0.14,0.017,0.208,0.026c0.874,0.113,1.715,0.229,2.534,0.348c0.276,0.04,0.539,0.081,0.808,0.121  c0.561,0.084,1.112,0.169,1.646,0.256c0.283,0.046,0.56,0.092,0.835,0.139c0.522,0.088,1.028,0.178,1.523,0.269  c0.232,0.043,0.469,0.085,0.696,0.128c0.7,0.134,1.378,0.269,2.02,0.408c5.891,1.276,13.478,3.758,19.955,11.683l0.015,0.019  c0.173,0.224,0.346,0.446,0.524,0.666c0.387,0.495,0.764,1.007,1.135,1.533c0.212,0.301,0.415,0.617,0.62,0.929  c0.155,0.234,0.315,0.459,0.467,0.699c2.129,3.348,3.967,7.249,5.489,11.642c1.477,4.27,2.667,9.736,3.535,16.246  c2.392,17.946,17.164,31.701,35.155,32.708c0.708,0.04,1.415,0.059,2.121,0.059c0.001,0,0.003,0,0.004,0  c0.664,0,1.327-0.018,1.986-0.053c0.286-0.015,0.568-0.045,0.852-0.066c0.383-0.029,0.766-0.054,1.147-0.094  c0.31-0.033,0.616-0.079,0.924-0.12c0.354-0.046,0.707-0.09,1.059-0.146c0.31-0.05,0.617-0.111,0.925-0.169  c0.348-0.065,0.694-0.128,1.039-0.202c0.304-0.066,0.605-0.141,0.907-0.214c0.345-0.084,0.689-0.167,1.032-0.26  c0.296-0.08,0.588-0.169,0.882-0.257c0.345-0.103,0.688-0.208,1.03-0.32c0.286-0.095,0.569-0.195,0.853-0.297  c0.343-0.123,0.684-0.249,1.024-0.381c0.277-0.108,0.55-0.22,0.824-0.335c0.341-0.143,0.679-0.29,1.016-0.442  c0.266-0.121,0.531-0.244,0.795-0.372c0.338-0.163,0.671-0.332,1.004-0.504c0.256-0.133,0.511-0.267,0.764-0.406  c0.333-0.183,0.661-0.374,0.989-0.566c0.246-0.145,0.491-0.289,0.733-0.439c0.328-0.204,0.65-0.417,0.973-0.63  c0.233-0.155,0.467-0.308,0.697-0.468c0.325-0.227,0.642-0.463,0.96-0.7c0.219-0.164,0.441-0.323,0.656-0.491  c0.326-0.254,0.643-0.52,0.962-0.786c0.198-0.165,0.399-0.325,0.593-0.493c0.344-0.299,0.677-0.611,1.012-0.924  c0.16-0.15,0.325-0.293,0.481-0.445c0.486-0.47,0.962-0.954,1.425-1.453c7.585-8.176,11.104-19.186,9.655-30.21  c-0.592-4.503-1.363-8.927-2.289-13.259c7.178,8.195,15.13,18.889,21.855,31.889c-1.159,9.384-14.201,24.372-23.694,32.519  c-3.14,2.691-3.506,7.418-0.817,10.559c1.481,1.731,3.582,2.621,5.696,2.621c1.724,0,3.455-0.591,4.867-1.8  c0.294-0.251,7.264-6.243,14.235-14.486c3.093-3.657,5.701-7.187,7.827-10.584c5.584,16.055,8.742,34.639,7.028,55.514  c-0.339,4.123,2.729,7.741,6.853,8.079c0.209,0.018,0.415,0.026,0.621,0.026c3.86,0,7.137-2.964,7.459-6.879  c0.588-7.164,0.658-14.3,0.235-21.382c2.88,2.312,5.141,4.358,6.052,5.634c1.462,2.047,3.765,3.137,6.102,3.137  c1.507,0,3.029-0.453,4.348-1.395c3.367-2.405,4.146-7.084,1.742-10.45c-4.039-5.656-15.361-13.69-20.904-17.442  c-2.635-13.135-7.034-25.964-13.142-38.287c-0.147-0.362-0.317-0.71-0.515-1.041c-3.696-7.324-7.994-14.468-12.889-21.385  c-9.214-13.018-18.677-22.67-25.369-28.752c10.193-4.492,21.908-7.945,32.675-10.382c0.468-0.105,0.945-0.214,1.402-0.314  c0.065-0.014,0.13-0.028,0.195-0.043c3.671-0.795,6.962-1.417,9.667-1.887c26.513,20.784,38.83,53.125,35.645,93.756  c-0.762,9.721-0.224,21.225,1.694,36.204c0.718,5.612,1.634,11.775,2.882,19.395c0.885,5.408,1.811,10.794,2.792,16.496  c4.95,28.777,10.069,58.534,8.796,85.693c-0.194,4.133,3,7.64,7.133,7.834c0.12,0.006,0.238,0.008,0.357,0.008  c3.976,0,7.29-3.127,7.478-7.141C442.533,380.069,437.274,349.493,432.187,319.925z M108.735,153.003  c-5.994,0.188-11.707-1.961-16.075-6.065c-4.367-4.102-6.876-9.664-7.067-15.661c-0.392-12.37,9.354-22.753,21.723-23.146  c3.661-0.116,18.397-0.541,37.448-0.541c3.952,0,8.088,0.018,12.35,0.062c-1.882,3.307-3.693,6.731-5.428,10.274  c-0.016,0.033-0.033,0.064-0.049,0.097c-0.579,1.185-1.151,2.381-1.714,3.591c-0.519,1.117-1.024,2.233-1.518,3.349  c-0.177,0.4-0.351,0.804-0.525,1.206c-0.315,0.721-0.627,1.442-0.931,2.162c-0.212,0.5-0.421,1.004-0.629,1.508  c-0.258,0.622-0.512,1.244-0.762,1.864c-0.227,0.56-0.452,1.123-0.676,1.688c-0.219,0.554-0.432,1.107-0.644,1.658  c-0.604,1.566-1.199,3.146-1.778,4.747c0,0.001-0.001,0.002-0.001,0.002c-0.279,0.772-0.552,1.55-0.825,2.328  c-0.115,0.328-0.23,0.655-0.343,0.981c-0.277,0.799-0.55,1.602-0.82,2.409c-0.059,0.177-0.116,0.351-0.174,0.527  c-0.567,1.71-1.122,3.437-1.66,5.18c-0.01,0.033-0.021,0.067-0.031,0.1c-0.124,0.402-0.253,0.798-0.376,1.202  c-0.153,0.001-0.305,0.002-0.457,0.002c-0.135,0.001-0.274,0.001-0.409,0.002c-0.004,0-0.007,0.001-0.011,0.001  C127.094,152.582,116.757,152.751,108.735,153.003z M275.542,213.896c-1-7.501-2.422-13.949-4.227-19.165  c-2.579-7.454-5.981-13.91-10.114-19.192c-0.036-0.045-0.072-0.091-0.109-0.136c-0.108-0.131-0.21-0.266-0.313-0.399l-0.079-0.103  c-0.037-0.048-0.075-0.096-0.113-0.143c-9.535-11.727-20.812-15.287-28.466-16.944c-0.698-0.151-1.434-0.299-2.189-0.443  c-0.184-0.035-0.37-0.071-0.556-0.106c-0.764-0.143-1.546-0.284-2.364-0.421c-0.042-0.007-0.088-0.014-0.131-0.021  c-0.787-0.131-1.606-0.258-2.443-0.383c-0.214-0.032-0.429-0.064-0.645-0.096c-0.885-0.129-1.79-0.256-2.728-0.378  c-0.074-0.01-0.152-0.019-0.226-0.029c-0.89-0.115-1.808-0.227-2.745-0.337c-0.226-0.026-0.451-0.053-0.678-0.079  c-0.215-0.025-0.421-0.05-0.637-0.074l0.16-0.359c0.438-0.981,0.879-1.951,1.327-2.895c15.795-33.243,32.444-33.243,37.915-33.243  c0.642,0,1.259,0.029,1.887,0.045c5.837,2.353,11.339,5.217,16.371,8.524c2.537,1.666,5.828,1.639,8.338-0.072  c1.841-1.257,3.758-2.482,5.729-3.683c0.409-0.249,0.822-0.496,1.236-0.742c0.611-0.364,1.228-0.723,1.851-1.082  c0.398-0.229,0.793-0.457,1.195-0.684c0.743-0.419,1.498-0.831,2.257-1.242c0.302-0.163,0.597-0.329,0.901-0.49  c0.988-0.525,1.991-1.043,3.004-1.555c0.453-0.229,0.914-0.453,1.372-0.68c0.631-0.312,1.265-0.622,1.905-0.928  c0.503-0.241,1.011-0.48,1.52-0.718c0.632-0.295,1.271-0.586,1.911-0.876c0.498-0.226,0.995-0.452,1.499-0.674  c0.821-0.363,1.653-0.719,2.488-1.073c0.293-0.124,0.579-0.252,0.874-0.375c3.102-1.297,4.872-4.437,4.571-7.617  c-0.069-0.734-0.249-1.47-0.548-2.187c-1.596-3.818-5.984-5.619-9.802-4.021c-1.735,0.725-3.435,1.474-5.119,2.234  c-0.265,0.119-0.528,0.239-0.792,0.359c-1.667,0.761-3.312,1.537-4.927,2.332c-0.116,0.057-0.23,0.116-0.346,0.174  c-1.513,0.749-2.999,1.514-4.464,2.291c-0.245,0.13-0.491,0.258-0.734,0.388c-1.502,0.807-2.979,1.628-4.428,2.464  c-0.094,0.054-0.194,0.106-0.288,0.16c-7.27-3.168-15.299-4.868-24.339-5.186c-1.137-0.044-2.148-0.066-3.122-0.066  c-5.314,0-10.351,0.854-15.127,2.576c-14.327,5.163-26.299,18.127-36.322,39.22c-0.569,1.199-1.128,2.428-1.679,3.676l-0.07,0.158  c-0.374,0.847-0.741,1.7-1.109,2.572c-0.04,0.096-0.082,0.191-0.122,0.288c-0.024,0.058-0.048,0.113-0.073,0.171  c-0.292,0.698-0.565,1.392-0.842,2.087c-0.189,0.47-0.38,0.937-0.564,1.412l-0.083,0.213c-0.391,1.002-0.77,2.002-1.136,2.994  c-0.001,0.003-0.002,0.006-0.003,0.009c-0.004,0.011-0.009,0.022-0.013,0.034c0,0.001-0.001,0.002-0.001,0.003  c-3.366,9.159-5.691,17.799-7.212,24.415c-0.042,0.181-0.08,0.354-0.12,0.531c-0.058,0.256-0.117,0.514-0.173,0.763  c-0.029,0.131-0.056,0.254-0.084,0.383c-0.156,0.704-0.304,1.387-0.44,2.034c-0.031,0.146-0.059,0.284-0.089,0.427  c-0.15,0.719-0.288,1.399-0.414,2.038c-0.076,0.387-0.148,0.757-0.216,1.113c-0.055,0.288-0.107,0.564-0.156,0.83  c-0.211,1.135-0.373,2.072-0.49,2.785c-0.032,0.192-0.06,0.366-0.086,0.524c-0.08,0.496-0.13,0.833-0.152,0.984  c-0.008,0.053-0.013,0.09-0.014,0.098c-1.477,11.088-11.019,19.45-22.198,19.45c-1,0-2.014-0.067-3.013-0.201  c-12.269-1.634-20.918-12.962-19.281-25.249c0.005-0.036,0.014-0.103,0.025-0.185c0.002-0.013,0.003-0.021,0.005-0.035  c0.001-0.004,0.002-0.012,0.002-0.016c0.253-1.797,1.923-13.035,6.136-28.057c1.717-6.121,3.62-12.046,5.697-17.736  c0.003-0.009,0.007-0.017,0.01-0.026c0.489-1.339,0.989-2.664,1.497-3.976c0.046-0.117,0.089-0.234,0.135-0.352  c0.502-1.292,1.014-2.569,1.534-3.835c0.084-0.205,0.172-0.411,0.257-0.615c0.426-1.026,0.858-2.041,1.296-3.048  c0.137-0.314,0.272-0.627,0.411-0.942c0.527-1.197,1.06-2.384,1.604-3.554c0.516-1.111,1.042-2.206,1.572-3.292  c0.248-0.506,0.502-1.005,0.753-1.506c0.279-0.555,0.555-1.114,0.837-1.663c0.334-0.649,0.673-1.29,1.012-1.93  c0.201-0.379,0.4-0.759,0.602-1.135c0.387-0.716,0.778-1.425,1.172-2.131c0.159-0.284,0.317-0.569,0.476-0.851  c0.425-0.75,0.853-1.492,1.286-2.228c0.132-0.225,0.265-0.449,0.398-0.673c0.454-0.765,0.912-1.523,1.374-2.273  c0.114-0.185,0.229-0.368,0.343-0.552c0.482-0.775,0.969-1.544,1.46-2.302c0.088-0.136,0.178-0.271,0.267-0.407  c0.522-0.8,1.048-1.593,1.579-2.373c5.81-8.529,12.204-15.936,19.139-22.136c2.17-1.939,3.02-4.959,2.182-7.745l-12.01-39.886  c-0.879-2.92-0.569-6.008,0.874-8.695c1.442-2.686,3.846-4.651,6.765-5.53c6.028-1.814,12.411,1.612,14.225,7.639l9.293,30.863  c0.589,1.957,1.953,3.588,3.774,4.516c1.82,0.928,3.944,1.071,5.871,0.397c3.901-1.363,7.927-2.458,11.967-3.255  c3.512-0.692,6.043-3.771,6.043-7.35V26.4c0-6.296,5.121-11.417,11.417-11.417c6.296,0,11.417,5.121,11.417,11.417v26.556  c0,3.716,2.724,6.87,6.4,7.412c4.25,0.626,8.465,1.493,12.53,2.578c3.911,1.043,7.939-1.206,9.105-5.078l8.915-29.603  c0.879-2.92,2.843-5.323,5.529-6.766c2.687-1.441,5.774-1.752,8.696-0.873c2.92,0.879,5.323,2.843,6.765,5.53  c1.443,2.687,1.753,5.774,0.874,8.695L315.97,69.522c-0.937,3.112,0.24,6.473,2.913,8.322c4.861,3.361,9.471,7.171,13.784,11.386  c-0.045,0.012-0.089,0.025-0.133,0.038c-0.957,0.267-1.918,0.538-2.886,0.82c-3.974,1.156-6.257,5.312-5.102,9.285  c0.289,0.994,0.765,1.881,1.38,2.636c1.843,2.264,4.926,3.331,7.906,2.466c1.108-0.323,2.227-0.638,3.354-0.949  c0.126-0.035,0.253-0.07,0.379-0.104c2.299-0.63,4.633-1.236,6.986-1.811c0.049-0.012,0.099-0.024,0.148-0.036  c1.153-0.282,2.31-0.555,3.47-0.822c18.283-4.207,32.512-5.5,35.711-5.751c12.348-0.961,23.17,8.284,24.14,20.62  c0.968,12.324-8.269,23.151-20.61,24.137c-2.783,0.23-6.878,0.714-11.824,1.495c-0.133,0.014-0.266,0.022-0.399,0.043  c-9.826,1.559-32.411,5.858-52.082,14.816c-0.095,0.043-0.188,0.087-0.282,0.13c-0.695,0.319-1.385,0.642-2.072,0.973  c-0.204,0.098-0.407,0.197-0.61,0.296c-0.579,0.283-1.156,0.57-1.728,0.862c-0.24,0.122-0.479,0.243-0.718,0.367  c-0.558,0.29-1.111,0.584-1.66,0.881c-0.221,0.12-0.444,0.237-0.662,0.358c-0.753,0.415-1.499,0.835-2.234,1.266  c-0.015,0.009-0.029,0.02-0.044,0.029c-0.121,0.072-0.239,0.152-0.356,0.232c-0.083,0.056-0.168,0.111-0.249,0.17  c-0.098,0.072-0.192,0.15-0.287,0.227c-0.096,0.078-0.193,0.156-0.284,0.238c-0.075,0.068-0.148,0.139-0.221,0.211  c-0.106,0.103-0.209,0.207-0.308,0.315c-0.058,0.064-0.115,0.13-0.171,0.196c-0.106,0.125-0.208,0.253-0.306,0.385  c-0.026,0.035-0.056,0.067-0.082,0.103c-0.022,0.03-0.038,0.062-0.06,0.093c-0.093,0.134-0.18,0.272-0.264,0.411  c-0.045,0.074-0.09,0.148-0.132,0.223c-0.071,0.128-0.135,0.259-0.198,0.39c-0.043,0.088-0.088,0.176-0.127,0.265  c-0.051,0.117-0.094,0.238-0.138,0.357c-0.039,0.104-0.082,0.206-0.116,0.311c-0.035,0.108-0.061,0.219-0.091,0.329  c-0.057,0.207-0.105,0.415-0.144,0.623c-0.024,0.13-0.051,0.259-0.068,0.389c-0.012,0.092-0.016,0.183-0.025,0.275  c-0.011,0.121-0.027,0.242-0.033,0.364c-0.001,0.023,0.001,0.047,0,0.07c-0.003,0.083,0,0.166,0,0.25c0,0.153,0,0.307,0.01,0.459  c0.005,0.08,0.014,0.16,0.022,0.24c0.014,0.153,0.03,0.307,0.054,0.459c0.013,0.086,0.031,0.171,0.047,0.257  c0.019,0.098,0.032,0.195,0.054,0.293c0.01,0.044,0.026,0.087,0.037,0.13c0.025,0.102,0.056,0.201,0.085,0.302  c0.036,0.12,0.072,0.239,0.114,0.358c0.041,0.118,0.088,0.234,0.135,0.35c0.026,0.063,0.046,0.127,0.073,0.19  c1.661,3.769,3.145,7.647,4.412,11.527c2.668,8.178,4.631,16.96,5.833,26.1c0.108,0.823,0.17,1.646,0.187,2.466  c0.115,5.738-1.997,11.316-5.97,15.598c-4.598,4.955-11.102,7.573-17.881,7.202C285.863,233.019,276.985,224.723,275.542,213.896z"/>
<path d="M432.062,426.45c-4.03-0.948-8.062,1.542-9.013,5.569c-8.684,36.768-34.635,57.043-81.665,63.806  c-91.165,13.107-197.587-83.964-228.312-176.217c-1.308-3.926-5.547-6.046-9.475-4.741c-3.926,1.308-6.048,5.55-4.741,9.475  c16.083,48.287,52.254,98.706,96.757,134.871c42.414,34.467,87.442,52.786,128.833,52.786c6.451,0,12.82-0.445,19.069-1.344  c27.814-3.999,49.922-12.943,65.71-26.582c14.108-12.187,23.665-28.543,28.406-48.611  C438.582,431.436,436.089,427.401,432.062,426.45z"/>
<g>
</g>
<g>
</g>
<g>
</g>
<g>
</g>
<g>
</g>
<g>
</g>
<g>
</g>
<g>
</g>
<g>
</g>
<g>
</g>
<g>
</g>
<g>
</g>
<g>
</g>
<g>
</g>
<g>
</g>
</svg>
