<?xml version="1.0" encoding="iso-8859-1"?>
<!-- Generator: Adobe Illustrator 19.0.0, SVG Export Plug-In . SVG Version: 6.00 Build 0)  -->
<svg xmlns="http://www.w3.org/2000/svg" xmlns:xlink="http://www.w3.org/1999/xlink" version="1.1" id="Capa_1" x="0px" y="0px" viewBox="0 0 511.998 511.998" style="enable-background:new 0 0 511.998 511.998;" xml:space="preserve">
<path style="fill:#F77474;" d="M363.81,96.126c-8.968-0.08-17.147,0.638-24.603,2.074c-16.023-36.845-11.81-90.358-11.81-90.358  H253.63c-0.509,2.835-10.56,78.485,26.865,140.714c-8.876,24.246-10.172,55.196-6.821,89.164  c11.186,113.369-49.95,106.896-98.794,82.974c-28.667-16.356-77.732-30.83-114.237,0.198  C16.379,358.515,8.379,464.127,7.612,472.739c-1.413,15.867,10.292,29.855,26.156,31.297c0.888,0.08,1.768,0.12,2.642,0.12  c14.753-0.002,27.344-11.269,28.733-26.243c1.465-15.784,10.654-94.091,32.911-113.012c1.017-0.864,2.115-1.587,3.283-2.181  c10.176-5.185,21.461,1.17,25.625,11.805c56.71,144.863,373.666,119.683,377.521-132.542  C505.693,162.844,442.955,96.834,363.81,96.126z"/>
<g>
	<path style="fill:#E55555;" d="M310.216,98.2c7.456-1.437,15.634-2.154,24.603-2.074c1.187,0.011,2.369,0.038,3.549,0.078   c-15.031-36.749-10.971-88.362-10.971-88.362h-28.991C298.404,7.842,294.193,61.355,310.216,98.2z"/>
	<path style="fill:#E55555;" d="M363.81,96.126c-5.54-0.05-10.777,0.207-15.73,0.748c72.775,7.481,128.555,70.447,127.413,145.11   c-2.208,144.485-107.161,214.459-207.081,220.649c107.462,6.751,233.648-62.072,236.072-220.649   C505.693,162.844,442.955,96.834,363.81,96.126z"/>
	<path style="fill:#E55555;" d="M72.346,362.72c-1.168,0.595-2.267,1.318-3.283,2.181c-22.257,18.92-31.446,97.226-32.911,113.012   c-0.897,9.673-6.473,17.794-14.283,22.335c3.534,2.053,7.559,3.392,11.898,3.787c0.888,0.08,1.768,0.12,2.642,0.12   c14.753-0.001,27.344-11.269,28.733-26.243c1.385-14.922,9.676-85.716,29.383-109.391C89.165,361.753,80.409,358.612,72.346,362.72   z"/>
	<path style="fill:#E55555;" d="M255.916,374.466c17.577-8.818,22.972-45.622,18.089-92.584   c-7.665,66.793-57.792,59.055-99.126,38.811c-17.296-9.868-42.015-19.046-66.923-17.965   C151.631,346.967,217.588,393.695,255.916,374.466z"/>
</g>
<path d="M30.682,366.1c1.009,0.46,2.064,0.678,3.104,0.678c2.847-0.001,5.569-1.631,6.827-4.39  c7.225-15.851,15.597-27.892,24.885-35.784c14.782-12.563,33.131-17.983,54.548-16.112c22.425,1.96,41.652,11.313,51.117,16.713  c0.137,0.078,0.276,0.152,0.418,0.221c36.032,17.648,65.368,19.83,84.834,6.314c4.151-2.882,7.801-6.449,10.964-10.677  c-2.998,20.486-8.826,36.346-17.265,46.652c-2.623,3.204-2.152,7.928,1.051,10.551c1.395,1.142,3.075,1.696,4.747,1.696  c2.17,0,4.323-0.938,5.805-2.748c34.306-41.895,20.454-135.67,19.401-142.424c-1.117-11.374-1.668-22.157-1.639-32.054  c0.012-4.141-3.335-7.508-7.476-7.52c-0.008,0-0.016,0-0.023,0c-4.13,0-7.484,3.342-7.497,7.476  c-0.031,10.456,0.552,21.815,1.729,33.761c4.243,43-2.102,71.69-18.348,82.968c-10.258,7.121-30.636,11.611-69.479-7.362  c-10.604-6.026-31.928-16.313-57.034-18.507c-25.55-2.238-47.618,4.368-65.566,19.624c-10.977,9.33-20.673,23.122-28.817,40.992  C25.252,359.936,26.914,364.384,30.682,366.1z"/>
<path d="M468.82,133.553c-27.929-28.615-65.199-44.569-104.944-44.925c-6.971-0.063-13.642,0.341-19.939,1.202  c-12.549-34.366-9.105-80.911-9.067-81.4c0.164-2.084-0.55-4.142-1.968-5.677c-1.42-1.536-3.415-2.408-5.506-2.408H253.63  c-3.63,0-6.739,2.601-7.38,6.174c-0.136,0.756-11.624,77.316,26.023,142.847c-2.515,7.596-4.44,15.97-5.728,24.949  c-0.589,4.099,2.256,7.899,6.355,8.487c4.09,0.59,7.899-2.256,8.487-6.355c1.337-9.305,3.405-17.823,6.147-25.313  c0.78-2.129,0.554-4.498-0.616-6.441c-30.264-50.324-28.185-110.236-26.565-129.352h59.16c-0.484,15.209-0.213,48.922,9.516,77.31  c-8.69,2.288-21.507,7.061-29.54,16.433c-2.694,3.144-2.33,7.878,0.814,10.572c1.414,1.212,3.149,1.805,4.876,1.805  c2.113,0,4.214-0.889,5.696-2.618c7.464-8.707,23.652-12.481,29.266-13.202c0.062-0.008,0.12-0.023,0.181-0.032  c0.101-0.015,0.201-0.025,0.302-0.045c7.063-1.361,14.828-2.005,23.117-1.939c35.721,0.32,69.228,14.67,94.347,40.406  c25.646,26.276,39.461,61.023,38.898,97.841c-1.302,85.122-39.913,151.899-108.721,188.028c-3.667,1.924-5.077,6.457-3.153,10.123  c1.342,2.554,3.947,4.014,6.645,4.014c1.175,0,2.366-0.277,3.478-0.861c34.47-18.098,62.089-43.49,82.088-75.468  c22.265-35.602,33.927-77.862,34.655-125.607C512.606,201.257,497.278,162.708,468.82,133.553z"/>
<path d="M363.961,440.81c-44.614,16.867-95.12,19.411-138.569,6.978c-44.806-12.823-77.283-39.812-91.449-75.995  c-3.082-7.873-9.083-13.997-16.464-16.802c-6.46-2.455-13.402-2.081-19.547,1.05c-1.706,0.87-3.3,1.929-4.735,3.149  c-25.926,22.037-34.615,108.271-35.52,118.031c-1.028,11.08-10.171,19.436-21.267,19.437c-0.646,0-1.31-0.03-1.963-0.089  c-11.721-1.066-20.41-11.458-19.367-23.166l0.074-0.857c1.582-18.439,5.886-54.403,16.937-88.098  c1.291-3.935-0.852-8.171-4.787-9.461c-3.942-1.294-8.172,0.853-9.461,4.788C6.319,414.91,1.852,452.177,0.214,471.265l-0.07,0.81  c-1.773,19.928,13.005,37.615,32.951,39.429c1.107,0.1,2.222,0.15,3.317,0.15c18.888-0.002,34.45-14.209,36.197-33.048  c3.329-35.886,14.146-94.258,30.301-107.991c0.548-0.466,1.164-0.874,1.831-1.215c2.395-1.22,4.889-1.353,7.412-0.393  c3.382,1.286,6.308,4.37,7.827,8.25c15.909,40.639,51.88,70.805,101.286,84.945c46.482,13.303,100.426,10.618,147.998-7.369  c3.873-1.465,5.826-5.791,4.362-9.664C372.162,441.297,367.833,439.347,363.961,440.81z"/>
<g>
</g>
<g>
</g>
<g>
</g>
<g>
</g>
<g>
</g>
<g>
</g>
<g>
</g>
<g>
</g>
<g>
</g>
<g>
</g>
<g>
</g>
<g>
</g>
<g>
</g>
<g>
</g>
<g>
</g>
</svg>
