<?xml version="1.0" encoding="iso-8859-1"?>
<!-- Generator: Adobe Illustrator 19.0.0, SVG Export Plug-In . SVG Version: 6.00 Build 0)  -->
<svg xmlns="http://www.w3.org/2000/svg" xmlns:xlink="http://www.w3.org/1999/xlink" version="1.1" id="Capa_1" x="0px" y="0px" viewBox="0 0 512 512" style="enable-background:new 0 0 512 512;" xml:space="preserve">
<g>
	<path style="fill:#EF3A47;" d="M267.464,109.6c15.753,2.407,31.625,3.596,47.499,3.626V33.748   c0-14.258-11.559-25.816-25.816-25.816l0,0c-14.258,0-25.816,11.559-25.816,25.816v75.251   C264.736,109.194,266.12,109.394,267.464,109.6z"/>
	<path style="fill:#EF3A47;" d="M204.354,397.871v79.601c0,14.258,11.559,25.816,25.816,25.816l0,0   c14.257,0,25.816-11.559,25.816-25.816V371.09C237.801,381.744,220.019,390.834,204.354,397.871z"/>
</g>
<path style="fill:#9B3E2C;" d="M369.629,108.72c-33.825,5.667-68.271,6.059-102.165,0.879c-27.33-4.177-67.024-6.403-118.19,0.671  C43.638,124.875,7.58,218.179,13.006,347.425c2.741,65.291-20.467,143.785,11.875,155.217  c38.696,13.679,81.761-76.905,138.46-89.792c37.099-8.432,139.474-59.202,192.291-119.997  c52.818-60.795,168.894-141.78,145.865-190.626C492.831,83.848,416.169,100.923,369.629,108.72z"/>
<g>
	<path style="fill:#CE3043;" d="M204.354,427.902c15.666-7.037,33.448-16.126,51.632-26.781v-30.03   c-18.184,10.655-35.967,19.744-51.632,26.781V427.902z"/>
	<path style="fill:#CE3043;" d="M314.964,113.225v-30.03c-15.874-0.03-31.746-1.218-47.499-3.626   c-1.345-0.205-2.729-0.404-4.133-0.6V109c1.404,0.195,2.789,0.394,4.133,0.6C283.217,112.007,299.09,113.195,314.964,113.225z"/>
</g>
<path style="fill:#7A232E;" d="M501.496,102.228c-2.842-6.027-12.995-8.241-26.999-8.221  c11.404,46.347-84.57,117.324-138.269,174.238c6.444-27.869,8.234-56.481-0.533-80.245c0,0-19.531,109.38-105.267,167.025  c-38.96,23.194-76.585,39.372-96.118,43.811c-49.078,11.155-87.941,80.512-122.598,90.085c2.687,6.718,6.871,11.496,13.167,13.721  c38.696,13.679,81.761-76.905,138.46-89.792c28.909-6.571,97.45-38.849,151.297-81.546l0,0l0,0  c15.255-12.097,29.334-25.028,40.994-38.451C408.449,232.058,524.526,151.074,501.496,102.228z"/>
<path style="fill:#F2CA5A;" d="M163.34,412.851c-2.183,0.497-4.343,1.12-6.487,1.837c1.953,15.443,0.373,36.685-16.007,55.48  c-4.723,5.418-4.158,13.639,1.259,18.361c4.097,3.571,9.797,4.119,14.373,1.832c1.476-0.738,2.835-1.771,3.987-3.092  c24.258-27.834,25.057-59.044,21.526-80.195C174.747,409.738,168.428,411.695,163.34,412.851z"/>
<path style="fill:#FFAE47;" d="M181.992,407.074c-7.245,2.665-13.565,4.622-18.652,5.778c-2.183,0.497-4.343,1.12-6.487,1.837  c1.123,8.883,1.071,19.685-2.287,30.835c2.889-1.071,5.812-1.968,8.774-2.642c5.295-1.203,11.924-3.273,19.545-6.107  C184.137,425.821,183.42,415.624,181.992,407.074z"/>
<path style="fill:#9B3E2C;" d="M320.053,400.542c-24.129-9.932-34.953-29.509-39.803-44.5c-7.505,4.926-15.069,9.624-22.576,14.056  c7.444,19.279,22.404,42.134,52.472,54.512c1.621,0.667,3.297,0.983,4.948,0.983c5.116,0,9.97-3.038,12.038-8.064  C329.87,410.883,326.7,403.278,320.053,400.542z"/>
<path style="fill:#7A232E;" d="M280.25,356.041c-7.505,4.926-15.069,9.624-22.576,14.056c2.819,7.301,6.719,15.114,12.105,22.678  c7.307-4.564,14.611-9.354,21.799-14.349C286.034,370.923,282.499,362.99,280.25,356.041z"/>
<path d="M508.288,99.027c-9.196-19.503-52.891-13.245-118.503-1.471c-7.61,1.364-14.796,2.654-21.396,3.761  c-15.293,2.563-30.63,3.998-45.918,4.332v-71.9c0-18.375-14.949-33.324-33.324-33.324c-18.375,0-33.324,14.949-33.324,33.324v66.747  c-23.539-2.656-48.831-3.027-75.398-1.08c-4.135,0.303-7.241,3.9-6.939,8.035c0.302,4.135,3.891,7.238,8.036,6.939  c30.317-2.219,58.848-1.335,84.806,2.632c2.043,0.312,4.093,0.604,6.15,0.877c1.308,0.174,2.619,0.327,3.929,0.485  c0.706,0.085,1.408,0.178,2.115,0.258c1.748,0.2,3.498,0.378,5.248,0.55c0.247,0.024,0.493,0.052,0.74,0.075  c28.574,2.729,57.543,1.687,86.357-3.142c6.685-1.119,13.914-2.416,21.567-3.79c22.568-4.049,48.147-8.639,68.745-10.237  c30.474-2.358,33.499,3.276,33.524,3.332c12.918,27.399-31.268,72.429-77.635,116.205c-3.015,2.846-3.151,7.598-0.305,10.613  c1.477,1.565,3.467,2.354,5.46,2.354c1.85,0,3.702-0.68,5.152-2.049c22.496-21.237,47.878-45.785,64.392-68.351  C511.105,137.781,516.508,116.463,508.288,99.027z M289.147,15.44c10.095,0,18.308,8.213,18.308,18.308v71.865  c-5.997-0.155-11.985-0.483-17.939-0.979c-0.222-0.019-0.443-0.035-0.666-0.054c-1.206-0.103-2.41-0.216-3.615-0.333  c-0.719-0.07-1.437-0.144-2.155-0.219c-0.968-0.101-1.936-0.201-2.901-0.31c-1.691-0.193-3.38-0.397-5.068-0.619  c-0.462-0.06-0.922-0.127-1.384-0.19c-0.964-0.131-1.927-0.272-2.89-0.412V33.748C270.839,23.653,279.052,15.44,289.147,15.44z"/>
<path d="M397.575,239.976c-15.897,14.985-33.997,32.285-47.612,47.954c-8.622,9.924-18.716,19.652-29.715,29.003  c2.96-5.203,5.945-10.814,8.821-16.758c20.791-42.974,25.517-82.662,13.67-114.774c-1.434-3.891-5.755-5.883-9.642-4.445  c-3.891,1.435-5.88,5.752-4.444,9.642c23.953,64.927-37.613,144.76-45.138,154.161c-12.878,8.782-26.097,16.943-39.004,24.265  c-1.628,0.92-3.257,1.838-4.891,2.74c-0.121,0.067-0.242,0.134-0.362,0.201c-12.82,7.07-25.744,13.561-37.979,19.057  c-0.222,0.1-0.428,0.225-0.638,0.344c-7.362,3.297-14.247,6.125-20.476,8.426c-0.257,0.064-0.513,0.141-0.764,0.234  c-6.822,2.51-12.676,4.332-17.424,5.431c-0.099,0.023-0.203,0.05-0.301,0.072c-0.017,0.004-0.035,0.009-0.052,0.013  c-0.741,0.169-1.488,0.356-2.239,0.555c-0.302,0.079-0.604,0.16-0.905,0.243c-0.386,0.107-0.779,0.222-1.171,0.338  c-0.882,0.258-1.76,0.533-2.635,0.823c-0.068,0.023-0.133,0.042-0.201,0.065c-0.008,0.003-0.015,0.006-0.023,0.009  c-26.126,8.761-48.957,31.483-69.298,51.738c-21.599,21.508-41.996,41.824-57.769,36.25c-16.125-5.7-13.038-42.267-9.77-80.979  c1.88-22.271,3.825-45.302,2.894-67.475c-0.553-13.176-0.663-25.986-0.326-38.073c0.115-4.145-3.15-7.599-7.295-7.714  c-4.157-0.122-7.599,3.15-7.714,7.295c-0.345,12.434-0.232,25.596,0.335,39.119c0.892,21.226-1.013,43.775-2.854,65.582  c-3.934,46.595-7.331,86.835,19.727,96.4c3.585,1.267,7.144,1.854,10.693,1.853c20.88-0.002,41.273-20.305,62.676-41.619  c16.545-16.477,34.851-34.695,54.238-44.291c-0.14,12.026-3.413,26.508-14.798,39.571c-3.602,4.132-5.378,9.419-5.003,14.888  c0.375,5.469,2.857,10.464,6.989,14.064c3.83,3.338,8.622,5.066,13.472,5.066c3.121,0,6.265-0.716,9.191-2.177  c2.398-1.199,4.515-2.839,6.29-4.875c23.897-27.42,26.734-57.783,24.132-80.245c2.134-0.835,4.334-1.725,6.588-2.66v68.177  c0,18.376,14.949,33.324,33.324,33.324s33.324-14.949,33.324-33.324v-80.639c9.382,13.247,23.271,26.27,43.799,34.719  c2.498,1.026,5.123,1.548,7.804,1.548c8.35,0,15.8-4.99,18.981-12.714c4.306-10.463-0.703-22.48-11.166-26.787  c-18.782-7.731-28.525-22.154-33.568-34.527c26.779-18.014,52.508-38.909,71.956-61.294c13.161-15.149,30.941-32.139,46.575-46.877  c3.017-2.844,3.157-7.596,0.313-10.613C405.342,237.271,400.593,237.132,397.575,239.976z M175.69,417.192  c1.527,18.876-1.754,43.195-20.882,65.143c-0.48,0.551-1.047,0.991-1.684,1.31c-2.007,1.001-4.394,0.697-6.086-0.776  c-1.108-0.966-1.774-2.306-1.875-3.773c-0.101-1.467,0.376-2.887,1.342-3.995c16.138-18.516,19.238-39.113,18.381-54.899  c0.039-0.009,0.079-0.021,0.118-0.03c0.702-0.159,1.432-0.337,2.177-0.526c0.272-0.068,0.552-0.142,0.828-0.214  c0.461-0.12,0.93-0.245,1.407-0.376c0.373-0.102,0.748-0.205,1.129-0.313c0.338-0.096,0.686-0.198,1.03-0.299  C172.905,418.058,174.264,417.648,175.69,417.192z M230.17,495.781c-10.095,0-18.308-8.213-18.308-18.308v-74.765  c11.443-5.274,23.842-11.539,36.617-18.641v93.405C248.478,487.568,240.265,495.781,230.17,495.781z M317.195,407.484  c2.808,1.155,4.151,4.379,2.997,7.186c-0.855,2.074-2.856,3.414-5.097,3.414c-0.713,0-1.417-0.141-2.092-0.418  c-20.912-8.608-36.316-23.538-45.864-44.427c3.14-1.901,6.284-3.849,9.426-5.836C283.058,382.003,295.056,398.371,317.195,407.484z"/>
<path d="M13.339,292.658c0.207,0.017,0.411,0.024,0.616,0.024c3.871,0,7.156-2.975,7.475-6.901  c3.951-48.711,16.154-87.474,36.27-115.209c21.429-29.548,52.585-47.334,92.604-52.867c4.107-0.568,6.976-4.358,6.408-8.466  c-0.568-4.108-4.354-6.975-8.466-6.408c-44.226,6.115-78.78,25.94-102.703,58.925c-21.755,29.998-34.903,71.317-39.08,122.812  C6.128,288.701,9.206,292.323,13.339,292.658z"/>
<g>
</g>
<g>
</g>
<g>
</g>
<g>
</g>
<g>
</g>
<g>
</g>
<g>
</g>
<g>
</g>
<g>
</g>
<g>
</g>
<g>
</g>
<g>
</g>
<g>
</g>
<g>
</g>
<g>
</g>
</svg>
